<svg width="1440" height="1024" viewBox="0 0 1440 1024" fill="none" xmlns="http://www.w3.org/2000/svg">
<ellipse cx="190.5" cy="181" rx="93.5" ry="94" fill="#C4C4C4" fill-opacity="0.15"/>
<ellipse cx="1163.5" cy="199.5" rx="120.5" ry="119.5" fill="#C4C4C4" fill-opacity="0.15"/>
<ellipse cx="943.5" cy="522.5" rx="70.5" ry="67.5" fill="#C4C4C4" fill-opacity="0.15"/>
<ellipse cx="462.5" cy="699.5" rx="87.5" ry="81.5" fill="#C4C4C4" fill-opacity="0.15"/>
<ellipse cx="1211" cy="863.5" rx="73" ry="72.5" fill="#C4C4C4" fill-opacity="0.15"/>
<path d="M588.455 366.906L567.342 379.997L787.22 696.916L808.333 683.826L588.455 366.906Z" fill="#E6E6E6"/>
<path d="M538.192 247.641L587.04 318.048C587.986 319.411 588.32 321.074 587.969 322.67C587.618 324.267 586.61 325.666 585.168 326.56C583.726 327.455 581.967 327.771 580.278 327.439C578.589 327.107 577.109 326.155 576.163 324.791L520.007 243.85C512.384 243.248 504.723 244.438 497.704 247.313L558.889 335.502C559.835 336.865 560.168 338.528 559.817 340.124C559.466 341.72 558.459 343.119 557.017 344.013C555.575 344.907 553.816 345.223 552.128 344.891C550.439 344.56 548.959 343.608 548.013 342.245L486.828 254.056C481.242 258.996 477.036 265.165 474.582 272.014L530.739 352.955C531.684 354.319 532.018 355.981 531.667 357.577C531.316 359.173 530.308 360.572 528.866 361.466C527.424 362.36 525.666 362.677 523.977 362.345C522.289 362.014 520.809 361.062 519.863 359.699L471.015 289.292C469.76 308.923 476.531 332.191 491.369 353.579C518.947 393.328 563.932 411.521 591.846 394.213C619.76 376.906 620.032 330.653 592.454 290.904C577.616 269.516 557.738 254.375 538.192 247.641Z" fill="#E6E6E6"/>
<path d="M683.117 323.551H657.868V702.554H683.117V323.551Z" fill="#E6E6E6"/>
<path d="M670.11 348.143C703.492 348.143 730.554 309.607 730.554 262.071C730.554 214.535 703.492 176 670.11 176C636.728 176 609.666 214.535 609.666 262.071C609.666 309.607 636.728 348.143 670.11 348.143Z" fill="#E6E6E6"/>
<path d="M670.11 332.89C697.576 332.89 719.842 301.183 719.842 262.071C719.842 222.96 697.576 191.253 670.11 191.253C642.644 191.253 620.378 222.96 620.378 262.071C620.378 301.183 642.644 332.89 670.11 332.89Z" fill="#CCCCCC"/>
<path d="M740.5 722C894.311 722 1019 715.237 1019 706.894C1019 698.551 894.311 691.788 740.5 691.788C586.689 691.788 462 698.551 462 706.894C462 715.237 586.689 722 740.5 722Z" fill="#E6E6E6"/>
<path d="M905.204 706.672C800.833 688.888 693.939 688.888 589.568 706.672C587.911 706.956 586.207 706.892 584.578 706.486C582.949 706.08 581.434 705.34 580.14 704.32C578.846 703.3 577.805 702.023 577.09 700.581C576.375 699.139 576.003 697.566 576.001 695.973V560.79H918.771V695.973C918.769 697.566 918.397 699.139 917.682 700.581C916.967 702.023 915.926 703.3 914.632 704.32C913.338 705.34 911.823 706.08 910.194 706.486C908.565 706.892 906.861 706.956 905.204 706.672V706.672Z" fill="#72FFA2"/>
<path d="M887.401 460.976C879.487 460.969 871.626 462.212 864.145 464.655C853.234 442.281 835.798 423.315 813.884 409.98C791.97 396.645 766.488 389.496 740.427 389.372C714.366 389.247 688.808 396.153 666.753 409.277C644.698 422.402 627.06 441.201 615.91 463.469C604.931 460.557 593.372 460.183 582.207 462.377C571.043 464.571 560.599 469.269 551.757 476.076C542.915 482.883 535.933 491.599 531.398 501.49C526.864 511.381 524.911 522.158 525.703 532.912C526.495 543.665 530.01 554.082 535.951 563.283C541.891 572.485 550.084 580.202 559.839 585.784C569.594 591.367 580.626 594.652 592.004 595.361C603.382 596.071 614.775 594.186 625.221 589.864C637.777 607.951 654.927 622.775 675.103 632.984C695.28 643.193 717.841 648.46 740.725 648.304C763.609 648.149 786.087 642.575 806.106 632.093C826.125 621.611 843.047 606.554 855.327 588.299C864.92 592.877 875.485 595.342 886.23 595.508C896.975 595.674 907.621 593.538 917.367 589.259C927.114 584.98 935.709 578.67 942.508 570.803C949.306 562.935 954.131 553.713 956.62 543.831C959.11 533.948 959.2 523.661 956.882 513.741C954.565 503.821 949.901 494.526 943.241 486.553C936.58 478.581 928.096 472.138 918.425 467.708C908.754 463.278 898.148 460.976 887.401 460.976V460.976Z" fill="#72FFA2"/>
<path d="M603.545 518.839H602.015C601.963 499.58 606.472 480.554 615.211 463.156L616.594 463.776C607.952 480.979 603.493 499.794 603.545 518.839V518.839Z" fill="#3F3D56"/>
<path d="M877.455 518.839H875.924C875.972 500.233 871.717 481.842 863.458 464.953L864.848 464.347C873.2 481.426 877.503 500.024 877.455 518.839V518.839Z" fill="#3F3D56"/>
<path d="M576.186 623.695L575.817 622.29C576.249 622.189 619.737 612.092 683.468 607.082C742.29 602.459 830.894 601.343 918.957 622.291L918.584 623.694C830.737 602.798 742.326 603.909 683.627 608.522C620.01 613.52 576.617 623.594 576.186 623.695Z" fill="#3F3D56"/>
<path d="M576.186 643.223L575.817 641.819C576.249 641.718 619.737 631.621 683.468 626.611C742.29 621.987 830.894 620.872 918.957 641.82L918.584 643.223C830.737 622.327 742.326 623.439 683.627 628.051C620.01 633.049 576.617 643.122 576.186 643.223Z" fill="#3F3D56"/>
<path d="M576.186 662.752L575.817 661.348C576.249 661.247 619.737 651.15 683.468 646.14C742.29 641.516 830.894 640.401 918.957 661.349L918.584 662.751C830.737 641.856 742.326 642.968 683.627 647.579C620.01 652.578 576.617 662.651 576.186 662.752Z" fill="#3F3D56"/>
<path d="M857.766 556.563L839.227 550.604L857.024 464.729L844.789 463.677C832.858 472.331 816.97 475.724 796.588 473.141L829.216 519.759L812.579 530.861L759.505 470.68C757.112 467.967 755.802 464.547 755.802 461.015C755.802 457.741 756.928 454.556 759.011 451.94C761.094 449.324 764.02 447.419 767.348 446.513L824.025 431.08L890.394 438.09C900.429 452.552 900.821 462.609 885.546 465.511L857.766 556.563Z" fill="#2F2E41"/>
<path d="M838.791 589.97C836.875 589.855 835.014 589.315 833.36 588.393C831.706 587.471 830.306 586.193 829.272 584.663C828.238 583.133 827.601 581.394 827.412 579.588C827.223 577.781 827.487 575.958 828.183 574.266L837.399 551.862C842.081 543.478 848.506 544.528 856.093 551.862L859.801 562.144C860.106 562.991 860.227 563.887 860.157 564.779C860.086 565.671 859.826 566.54 859.391 567.334L850.408 583.753C849.319 585.743 847.641 587.391 845.578 588.495C843.515 589.599 841.157 590.111 838.791 589.97V589.97Z" fill="#2F2E41"/>
<path d="M814.832 560.631C812.916 560.516 811.055 559.976 809.401 559.054C807.747 558.132 806.346 556.854 805.313 555.324C804.279 553.794 803.642 552.056 803.453 550.249C803.263 548.443 803.527 546.62 804.223 544.928L813.44 522.524C818.121 514.14 824.547 515.189 832.134 522.524L835.841 532.805C836.147 533.652 836.268 534.548 836.198 535.44C836.127 536.332 835.867 537.201 835.432 537.996L826.449 554.414C825.36 556.405 823.681 558.052 821.619 559.156C819.556 560.26 817.198 560.773 814.832 560.631Z" fill="#2F2E41"/>
<path d="M826.621 349.06C838.088 349.06 847.384 340.272 847.384 329.432C847.384 318.591 838.088 309.803 826.621 309.803C815.153 309.803 805.857 318.591 805.857 329.432C805.857 340.272 815.153 349.06 826.621 349.06Z" fill="#FFB9B9"/>
<path d="M858.879 357.122L830.329 371.143L824.396 345.906L844.047 334.339L858.879 357.122Z" fill="#FFB9B9"/>
<path d="M893.361 441.595C864.873 433.461 839.024 429.246 820.317 435.636C826.765 418.489 814.864 392.303 801.779 365.534C807.425 358.557 816.427 355.854 826.621 354.668C837.774 362.324 845.55 357.41 851.463 345.555C864.358 345.066 876.784 349.383 888.911 356.772C879.431 385.476 881.138 413.742 893.361 441.595Z" fill="#3F3D56"/>
<path d="M819.947 439.843C815.448 442.349 811.297 446.572 807.34 451.76C800.655 447.891 794.771 443.486 790.136 438.247C786.892 434.532 784.679 430.111 783.7 425.383C782.721 420.656 783.005 415.772 784.528 411.175L797.198 372.246C798.251 369.013 800.295 366.148 803.072 364.015L804.745 362.73L821.43 392.524L804.745 421.967C806.861 427.329 813.096 433.524 819.947 439.843Z" fill="#3F3D56"/>
<path d="M825.69 469.523C824.177 470.175 822.525 470.485 820.863 470.429C819.202 470.373 817.577 469.953 816.117 469.201C814.657 468.448 813.403 467.386 812.453 466.096C811.502 464.806 810.883 463.326 810.642 461.77L807.885 443.924L817.525 439.016L829.76 454.157C830.737 455.367 831.413 456.769 831.739 458.259C832.064 459.75 832.03 461.291 831.639 462.767C831.248 464.243 830.51 465.617 829.48 466.787C828.45 467.957 827.154 468.892 825.69 469.523V469.523Z" fill="#FFB9B9"/>
<path d="M847.57 328.573L844.024 328.672L834.19 315.503C821.589 316.735 811.264 321.91 802.526 329.838L801.64 324.254C800.795 318.929 802.141 313.501 805.4 309.086C808.66 304.67 813.585 301.604 819.163 300.516H819.163C822.093 299.945 825.115 299.938 828.048 300.496C830.981 301.053 833.765 302.163 836.234 303.761C838.703 305.358 840.806 307.409 842.418 309.791C844.029 312.174 845.117 314.839 845.615 317.628L847.57 328.573Z" fill="#2F2E41"/>
<path d="M807.698 451.767C807.009 450.337 806.68 448.775 806.74 447.204C806.799 445.634 807.244 444.098 808.039 442.718C808.835 441.338 809.959 440.152 811.323 439.254C812.688 438.355 814.254 437.769 815.899 437.542L834.778 434.935L839.969 444.049L823.952 455.615C822.673 456.539 821.19 457.178 819.613 457.486C818.036 457.793 816.407 457.761 814.845 457.391C813.283 457.022 811.83 456.324 810.593 455.35C809.355 454.377 808.366 453.152 807.698 451.767V451.767Z" fill="#FFB9B9"/>
<path d="M896.958 435.533C878.996 436.852 859.386 442.146 838.856 449.657C838.601 443.896 836.391 438.365 832.553 433.884C851.199 429.241 868.119 423.793 878.53 415.307L872.226 370.441L885.945 355.72L888.311 356.887C890.277 357.852 892.005 359.198 893.385 360.835C894.765 362.473 895.766 364.367 896.321 366.393C902.114 387.694 904.687 408.102 902.918 427.307C903.146 429.128 902.668 430.966 901.572 432.478C900.476 433.991 898.836 435.077 896.958 435.533V435.533Z" fill="#3F3D56"/>
<path d="M535.363 702.635C518.659 712.512 501.955 712.508 485.251 702.623C484.722 702.315 484.292 701.876 484.009 701.354C483.726 700.831 483.599 700.245 483.643 699.66L488.855 635.604H531.013L536.968 699.637C537.019 700.228 536.897 700.821 536.613 701.35C536.33 701.879 535.897 702.324 535.363 702.635V702.635Z" fill="#3F3D56"/>
<path d="M509.74 643.575C521.489 643.575 531.013 640.331 531.013 636.329C531.013 632.327 521.489 629.083 509.74 629.083C497.991 629.083 488.466 632.327 488.466 636.329C488.466 640.331 497.991 643.575 509.74 643.575Z" fill="#3F3D56"/>
<path d="M526.414 633.883C515.329 641.255 504.598 641.255 494.221 633.883V622.289H526.414V633.883Z" fill="#72FFA2"/>
<path d="M510.317 628.086C519.207 628.086 526.414 625.491 526.414 622.289C526.414 619.088 519.207 616.492 510.317 616.492C501.428 616.492 494.221 619.088 494.221 622.289C494.221 625.491 501.428 628.086 510.317 628.086Z" fill="#72FFA2"/>
<path d="M511.084 622.289C511.931 622.289 512.617 621.965 512.617 621.565C512.617 621.164 511.931 620.84 511.084 620.84C510.237 620.84 509.551 621.164 509.551 621.565C509.551 621.965 510.237 622.289 511.084 622.289Z" fill="#E6E6E6"/>
<path d="M518.323 622.289C519.169 622.289 519.856 621.965 519.856 621.565C519.856 621.164 519.169 620.84 518.323 620.84C517.476 620.84 516.79 621.164 516.79 621.565C516.79 621.965 517.476 622.289 518.323 622.289Z" fill="#E6E6E6"/>
<path d="M514.703 624C515.55 624 516.236 623.676 516.236 623.275C516.236 622.875 515.55 622.551 514.703 622.551C513.857 622.551 513.17 622.875 513.17 623.275C513.17 623.676 513.857 624 514.703 624Z" fill="#E6E6E6"/>
<path d="M500.226 624C501.072 624 501.759 623.676 501.759 623.275C501.759 622.875 501.072 622.551 500.226 622.551C499.379 622.551 498.693 622.875 498.693 623.275C498.693 623.676 499.379 624 500.226 624Z" fill="#E6E6E6"/>
<path d="M503.845 622.289C504.692 622.289 505.378 621.965 505.378 621.565C505.378 621.164 504.692 620.84 503.845 620.84C502.999 620.84 502.312 621.164 502.312 621.565C502.312 621.965 502.999 622.289 503.845 622.289Z" fill="#E6E6E6"/>
<path d="M507.465 624.855C508.311 624.855 508.998 624.531 508.998 624.131C508.998 623.731 508.311 623.406 507.465 623.406C506.618 623.406 505.932 623.731 505.932 624.131C505.932 624.531 506.618 624.855 507.465 624.855Z" fill="#E6E6E6"/>
<path d="M998.255 702.635C981.551 712.512 964.846 712.508 948.142 702.623C947.613 702.315 947.184 701.876 946.901 701.354C946.617 700.831 946.491 700.245 946.535 699.66L951.747 635.604H993.905L999.859 699.637C999.911 700.228 999.788 700.821 999.505 701.35C999.222 701.879 998.789 702.324 998.255 702.635V702.635Z" fill="#3F3D56"/>
<path d="M972.631 643.575C984.38 643.575 993.905 640.331 993.905 636.329C993.905 632.327 984.38 629.083 972.631 629.083C960.882 629.083 951.358 632.327 951.358 636.329C951.358 640.331 960.882 643.575 972.631 643.575Z" fill="#3F3D56"/>
<path d="M989.306 633.883C978.22 641.255 967.489 641.255 957.112 633.883V622.289H989.306V633.883Z" fill="#72FFA2"/>
<path d="M973.209 628.086C982.099 628.086 989.306 625.491 989.306 622.289C989.306 619.088 982.099 616.492 973.209 616.492C964.319 616.492 957.112 619.088 957.112 622.289C957.112 625.491 964.319 628.086 973.209 628.086Z" fill="#72FFA2"/>
<path d="M973.976 622.289C974.822 622.289 975.508 621.965 975.508 621.565C975.508 621.164 974.822 620.84 973.976 620.84C973.129 620.84 972.442 621.164 972.442 621.565C972.442 621.965 973.129 622.289 973.976 622.289Z" fill="#E6E6E6"/>
<path d="M981.214 622.289C982.061 622.289 982.747 621.965 982.747 621.565C982.747 621.164 982.061 620.84 981.214 620.84C980.368 620.84 979.681 621.164 979.681 621.565C979.681 621.965 980.368 622.289 981.214 622.289Z" fill="#E6E6E6"/>
<path d="M977.595 624C978.442 624 979.128 623.676 979.128 623.275C979.128 622.875 978.442 622.551 977.595 622.551C976.748 622.551 976.062 622.875 976.062 623.275C976.062 623.676 976.748 624 977.595 624Z" fill="#E6E6E6"/>
<path d="M963.117 624C963.964 624 964.65 623.676 964.65 623.275C964.65 622.875 963.964 622.551 963.117 622.551C962.271 622.551 961.584 622.875 961.584 623.275C961.584 623.676 962.271 624 963.117 624Z" fill="#E6E6E6"/>
<path d="M966.737 622.289C967.583 622.289 968.27 621.965 968.27 621.565C968.27 621.164 967.583 620.84 966.737 620.84C965.89 620.84 965.204 621.164 965.204 621.565C965.204 621.965 965.89 622.289 966.737 622.289Z" fill="#E6E6E6"/>
<path d="M970.356 624.855C971.203 624.855 971.889 624.531 971.889 624.131C971.889 623.731 971.203 623.406 970.356 623.406C969.509 623.406 968.823 623.731 968.823 624.131C968.823 624.531 969.509 624.855 970.356 624.855Z" fill="#E6E6E6"/>
</svg>
